<svg width="17" height="20" viewBox="0 0 17 20" fill="none" xmlns="http://www.w3.org/2000/svg">
<path fill-rule="evenodd" clip-rule="evenodd" d="M0 8.31776C0 3.71789 3.84388 0 8.49345 0C13.1561 0 17 3.71789 17 8.31776C17 10.6357 16.157 12.7876 14.7695 14.6116C13.2388 16.6235 11.3522 18.3765 9.22854 19.7524C8.74251 20.0704 8.30387 20.0944 7.77045 19.7524C5.63474 18.3765 3.74809 16.6235 2.2305 14.6116C0.841983 12.7876 0 10.6357 0 8.31776ZM5.69434 8.57629C5.69434 10.1172 6.95177 11.3292 8.49355 11.3292C10.0363 11.3292 11.3059 10.1172 11.3059 8.57629C11.3059 7.04733 10.0363 5.77637 8.49355 5.77637C6.95177 5.77637 5.69434 7.04733 5.69434 8.57629Z" fill="#73BF45"/>
</svg>
